<?xml version="1.0" encoding="UTF-8"?>
<svg width="20px" height="20px" viewBox="0 0 20 20" version="1.1" xmlns="http://www.w3.org/2000/svg" xmlns:xlink="http://www.w3.org/1999/xlink">
    <!-- Generator: Sketch 58 (84663) - https://sketch.com -->
    <g id="Icon/Glyph/Search" stroke="none" stroke-width="1" fill="none" fill-rule="evenodd">
        <path d="M8.5,3 C11.5375661,3 14,5.46243388 14,8.5 C14,9.65722994 13.6426018,10.730985 13.0321626,11.616908 L16,14.5857864 C16.3905243,14.9763107 16.3905243,15.6094757 16,16 C15.6094757,16.3905243 14.9763107,16.3905243 14.5857864,16 L14.5857864,16 L11.616908,13.0321626 C10.730985,13.6426018 9.65722994,14 8.5,14 C5.46243388,14 3,11.5375661 3,8.5 C3,5.46243388 5.46243388,3 8.5,3 Z M8.5,5 C6.56700338,5 5,6.56700338 5,8.5 C5,10.4329966 6.56700338,12 8.5,12 C10.4329966,12 12,10.4329966 12,8.5 C12,6.56700338 10.4329966,5 8.5,5 Z" id="Icon" fill="#BCC9D1"></path>
    </g>
</svg>